<svg width="35" height="35" viewBox="0 0 35 35" fill="none" xmlns="http://www.w3.org/2000/svg">
<path d="M32.7808 17.5C32.7808 17.0297 33.0312 16.4008 33.2741 15.7916C33.6853 14.7602 34.1523 13.5898 33.7542 12.4152C33.3451 11.2077 32.2328 10.5208 31.2528 9.91375C30.695 9.56922 30.1208 9.21266 29.8484 8.855C29.5739 8.49406 29.4044 7.88703 29.2239 7.24391C28.9231 6.16656 28.5797 4.94484 27.5286 4.21203C26.5027 3.49891 25.2098 3.56234 24.0669 3.61703C23.3866 3.64984 22.6833 3.68484 22.2097 3.53719C21.7776 3.40266 21.2767 3.01328 20.7462 2.59984C19.8406 1.89328 18.8136 1.09375 17.5 1.09375C16.1864 1.09375 15.1594 1.89328 14.2527 2.59984C13.7233 3.01328 13.2223 3.40266 12.7892 3.53719C12.3156 3.68375 11.6123 3.64984 10.932 3.61703C9.79234 3.56453 8.49624 3.5 7.47031 4.21531C6.41921 4.94594 6.07687 6.16875 5.77609 7.24609C5.59453 7.88922 5.42499 8.49625 5.15046 8.85719C4.87921 9.21375 4.3039 9.56922 3.74718 9.91266C2.76718 10.5208 1.65484 11.2087 1.24468 12.4152C0.84765 13.5898 1.31359 14.7602 1.72484 15.7916C1.96765 16.4008 2.21921 17.0297 2.21921 17.5C2.21921 17.9703 1.96874 18.5992 1.72593 19.2084C1.31468 20.2398 0.84765 21.4102 1.24578 22.5848C1.65484 23.7923 2.76718 24.4792 3.74718 25.0863C4.30499 25.4308 4.87921 25.7873 5.15156 26.145C5.42609 26.5059 5.59562 27.113 5.77609 27.7561C6.07687 28.8334 6.42031 30.0552 7.4714 30.788C8.49734 31.5011 9.78796 31.4366 10.9331 31.383C11.6145 31.3513 12.3189 31.3163 12.7903 31.4628C13.2223 31.5973 13.7233 31.9867 14.2537 32.4002C15.1594 33.1067 16.1864 33.9062 17.5 33.9062C18.8136 33.9062 19.8406 33.1067 20.7473 32.4002C21.2767 31.9867 21.7776 31.5973 22.2108 31.4628C22.6844 31.3163 23.3866 31.3491 24.068 31.383C25.2076 31.4377 26.5048 31.5011 27.5297 30.7858C28.5808 30.0541 28.9231 28.8323 29.225 27.755C29.4055 27.1119 29.575 26.5048 29.8495 26.1439C30.1208 25.7873 30.6961 25.4319 31.2528 25.0873C32.2328 24.4792 33.3451 23.7913 33.7553 22.5848C34.1523 21.4102 33.6864 20.2398 33.2752 19.2084C33.0323 18.5992 32.7808 17.9703 32.7808 17.5ZM31.243 20.0178C31.5284 20.732 31.8216 21.4714 31.6826 21.8816C31.5251 22.3442 30.8011 22.7927 30.1011 23.2258C29.3759 23.6742 28.6245 24.1391 28.1083 24.8183C27.5811 25.5117 27.3459 26.3506 27.1184 27.1633C26.9062 27.9223 26.6853 28.7077 26.2784 28.9909C25.865 29.2797 25.0042 29.2381 24.173 29.1966C23.3045 29.1539 22.4022 29.1112 21.56 29.3727C20.7473 29.6253 20.0637 30.1591 19.4009 30.6731C18.713 31.2113 18.0622 31.7188 17.5 31.7188C16.9378 31.7188 16.287 31.2113 15.598 30.6742C14.9362 30.1591 14.2526 29.6264 13.4389 29.3738C12.9128 29.2108 12.3648 29.1659 11.8147 29.1659C11.4844 29.1659 11.1541 29.1834 10.827 29.1977C9.99578 29.2392 9.13499 29.2797 8.72156 28.992C8.31468 28.7077 8.09484 27.9234 7.88156 27.1644C7.65406 26.3528 7.4189 25.5128 6.89171 24.8194C6.37437 24.1402 5.62406 23.6742 4.89781 23.2258C4.19781 22.7927 3.47374 22.3431 3.31734 21.8816C3.17843 21.4714 3.47265 20.732 3.75703 20.0178C4.06109 19.2544 4.40671 18.3892 4.40671 17.5C4.40671 16.6108 4.06218 15.7456 3.75703 14.9822C3.47156 14.268 3.17843 13.5286 3.31734 13.1184C3.47484 12.6558 4.1989 12.2073 4.8989 11.7742C5.62406 11.3258 6.37546 10.8609 6.89171 10.1817C7.4189 9.48828 7.65406 8.64937 7.88156 7.83672C8.09374 7.07766 8.31359 6.29234 8.72156 6.00906C9.1339 5.71922 9.99359 5.75859 10.827 5.80344C11.6955 5.84609 12.5978 5.88875 13.44 5.62734C14.2527 5.37469 14.9362 4.84094 15.5991 4.32688C16.287 3.78875 16.9378 3.28125 17.5 3.28125C18.0622 3.28125 18.713 3.78875 19.402 4.32578C20.0637 4.84094 20.7473 5.37359 21.5611 5.62625C22.4033 5.88766 23.3023 5.84281 24.1741 5.80234C25.0064 5.75969 25.8661 5.71922 26.2795 6.00797C26.6864 6.29234 26.9062 7.07656 27.1195 7.83563C27.347 8.64719 27.5822 9.48719 28.1094 10.1806C28.6267 10.8598 29.377 11.3258 30.1033 11.7742C30.8033 12.2073 31.5273 12.6569 31.6837 13.1184C31.8227 13.5286 31.5284 14.268 31.2441 14.9822C30.94 15.7445 30.5944 16.6097 30.5944 17.5C30.5944 18.3903 30.9389 19.2544 31.243 20.0178Z" fill="black"/>
<path d="M13.125 15.3125C14.3331 15.3125 15.3125 14.3331 15.3125 13.125C15.3125 11.9169 14.3331 10.9375 13.125 10.9375C11.9169 10.9375 10.9375 11.9169 10.9375 13.125C10.9375 14.3331 11.9169 15.3125 13.125 15.3125Z" fill="black"/>
<path d="M21.875 24.0625C23.0831 24.0625 24.0625 23.0831 24.0625 21.875C24.0625 20.6669 23.0831 19.6875 21.875 19.6875C20.6669 19.6875 19.6875 20.6669 19.6875 21.875C19.6875 23.0831 20.6669 24.0625 21.875 24.0625Z" fill="black"/>
<path d="M21.3447 11.0939C20.8251 10.7833 20.1547 10.9517 19.8441 11.4691L13.2816 22.4066C12.9709 22.925 13.1383 23.5966 13.6567 23.9072C13.8317 24.0122 14.0264 24.0625 14.2178 24.0625C14.5897 24.0625 14.9517 23.8733 15.1562 23.532L21.7187 12.5945C22.0305 12.0761 21.862 11.4045 21.3447 11.0939Z" fill="black"/>
</svg>
