<svg width="17" height="17" viewBox="0 0 17 17" fill="none" xmlns="http://www.w3.org/2000/svg">
<path d="M8.49984 1.41666C7.09889 1.41666 5.7294 1.83209 4.56455 2.61041C3.3997 3.38874 2.49181 4.49501 1.95569 5.78932C1.41957 7.08362 1.2793 8.50785 1.55261 9.88188C1.82592 11.2559 2.50055 12.518 3.49117 13.5087C4.48179 14.4993 5.74392 15.1739 7.11795 15.4472C8.49198 15.7205 9.91621 15.5803 11.2105 15.0441C12.5048 14.508 13.6111 13.6001 14.3894 12.4353C15.1677 11.2704 15.5832 9.90094 15.5832 8.49999C15.5832 7.56979 15.4 6.6487 15.044 5.78932C14.688 4.92993 14.1663 4.14907 13.5085 3.49132C12.8508 2.83357 12.0699 2.31181 11.2105 1.95584C10.3511 1.59987 9.43004 1.41666 8.49984 1.41666ZM8.49984 14.1667C7.37908 14.1667 6.28349 13.8343 5.35161 13.2116C4.41973 12.589 3.69342 11.704 3.26452 10.6685C2.83563 9.63308 2.72341 8.4937 2.94206 7.39448C3.16071 6.29525 3.7004 5.28555 4.4929 4.49305C5.2854 3.70055 6.2951 3.16086 7.39433 2.94221C8.49355 2.72356 9.63293 2.83578 10.6684 3.26467C11.7038 3.69357 12.5888 4.41988 13.2115 5.35176C13.8342 6.28364 14.1665 7.37923 14.1665 8.49999C14.1665 10.0029 13.5695 11.4442 12.5068 12.5069C11.4441 13.5696 10.0027 14.1667 8.49984 14.1667ZM11.3332 7.79166H5.66651C5.47865 7.79166 5.29848 7.86628 5.16564 7.99912C5.0328 8.13196 4.95817 8.31213 4.95817 8.49999C4.95817 8.68785 5.0328 8.86802 5.16564 9.00086C5.29848 9.1337 5.47865 9.20832 5.66651 9.20832H11.3332C11.521 9.20832 11.7012 9.1337 11.834 9.00086C11.9669 8.86802 12.0415 8.68785 12.0415 8.49999C12.0415 8.31213 11.9669 8.13196 11.834 7.99912C11.7012 7.86628 11.521 7.79166 11.3332 7.79166Z" fill="black" fill-opacity="0.4"/>
</svg>
