<svg width="13" height="6" viewBox="0 0 13 6" fill="none" xmlns="http://www.w3.org/2000/svg">
<path fill-rule="evenodd" clip-rule="evenodd" d="M0.189924 0.199893C0.0679859 0.307642 6.61763e-08 0.450566 6.44044e-08 0.59916C6.26324e-08 0.747755 0.0679859 0.890678 0.189924 0.998427L5.5615 5.66909C5.6799 5.77364 5.82241 5.85689 5.98036 5.91378C6.1383 5.97066 6.30839 6 6.48027 6C6.65215 6 6.82223 5.97066 6.98018 5.91378C7.13813 5.85689 7.28063 5.77364 7.39904 5.66909L12.8103 0.96461C13.0605 0.746431 13.0638 0.392981 12.8168 0.17153C12.7579 0.117915 12.6866 0.0750238 12.6071 0.0455185C12.5277 0.0160133 12.4419 0.000524669 12.3551 1.30219e-05C12.2682 -0.000498625 12.1821 0.0139786 12.1022 0.0425455C12.0223 0.0711123 11.9503 0.113159 11.8905 0.166075L6.93949 4.47129C6.88028 4.52361 6.80901 4.56527 6.73001 4.59374C6.651 4.62221 6.56592 4.63689 6.47994 4.63689C6.39396 4.63689 6.30888 4.62221 6.22988 4.59374C6.15088 4.56527 6.0796 4.52361 6.0204 4.47129L1.10837 0.200439C1.04922 0.148136 0.978001 0.106484 0.899051 0.0780215C0.820102 0.0495586 0.735074 0.0348806 0.649147 0.0348806C0.563219 0.0348806 0.478192 0.0495586 0.399242 0.0780215C0.320292 0.106484 0.249074 0.14759 0.189924 0.199893Z" fill="black"/>
</svg>
