<svg width="10" height="19" viewBox="0 0 10 19" fill="none" xmlns="http://www.w3.org/2000/svg">
<path fill-rule="evenodd" clip-rule="evenodd" d="M0.333158 18.7224C0.51274 18.9006 0.750944 19 0.998602 19C1.24626 19 1.48446 18.9006 1.66405 18.7224L9.44848 10.8717C9.62273 10.6986 9.76148 10.4903 9.8563 10.2595C9.95111 10.0286 10 9.78005 10 9.52884C10 9.27763 9.95111 9.02904 9.8563 8.7982C9.76148 8.56736 9.62273 8.35907 9.44848 8.18602L1.60768 0.277306C1.24405 -0.0884411 0.654969 -0.0931922 0.285883 0.267808C0.196526 0.35381 0.12504 0.458093 0.0758651 0.574178C0.0266898 0.690261 0.000874837 0.815669 2.22632e-05 0.942616C-0.000830311 1.06956 0.0232977 1.19534 0.0709099 1.31213C0.118521 1.42893 0.188599 1.53425 0.276793 1.62155L7.45215 8.85767C7.53934 8.9442 7.60878 9.04837 7.65623 9.16384C7.70368 9.2793 7.72814 9.40365 7.72814 9.52931C7.72814 9.65498 7.70368 9.77932 7.65623 9.89479C7.60878 10.0103 7.53934 10.1144 7.45215 10.201L0.334065 17.3801C0.246895 17.4665 0.177476 17.5706 0.130038 17.686C0.0825995 17.8014 0.0581359 17.9257 0.0581359 18.0512C0.0581359 18.1768 0.0825996 18.3011 0.130038 18.4165C0.177476 18.5319 0.245986 18.636 0.333158 18.7224Z" fill="black"/>
</svg>
