<svg width="36" height="36" viewBox="0 0 36 36" fill="none" xmlns="http://www.w3.org/2000/svg">
<path d="M19.507 2.35045C20.19 2.35045 20.7927 2.59822 21.315 3.09375L22.8217 4.60045C23.3306 5.10938 23.5851 5.71875 23.5851 6.42857C23.5851 7.15179 23.3306 7.75447 22.8217 8.23661L16.9355 14.1429L31.0784 14.1429C31.7748 14.1429 32.3407 14.394 32.7759 14.8962C33.2112 15.3984 33.4288 16.0045 33.4288 16.7143L33.4288 19.2857C33.4288 19.9955 33.2112 20.6016 32.7759 21.1038C32.3407 21.606 31.7748 21.8571 31.0784 21.8571L16.9355 21.8571L22.8217 27.7634C23.3306 28.2455 23.5851 28.8482 23.5851 29.5714C23.5851 30.2946 23.3306 30.8973 22.8217 31.3795L21.315 32.8862C20.8061 33.3951 20.2034 33.6496 19.507 33.6496C18.7972 33.6496 18.1878 33.3951 17.6789 32.8862L4.60072 19.808C4.10519 19.3393 3.85742 18.7366 3.85742 18C3.85742 17.2768 4.10519 16.6674 4.60072 16.1719L17.6788 3.09375C18.2012 2.59822 18.8105 2.35045 19.507 2.35045Z" fill="#5C6D84"/>
</svg>
