<svg width="40" height="40" viewBox="0 0 40 40" fill="none" xmlns="http://www.w3.org/2000/svg">
<path d="M13.3331 18.3333C13.0035 18.3333 12.6812 18.4311 12.4072 18.6142C12.1331 18.7974 11.9195 19.0576 11.7933 19.3622C11.6672 19.6667 11.6342 20.0018 11.6985 20.3251C11.7628 20.6485 11.9215 20.9454 12.1546 21.1785C12.3877 21.4116 12.6847 21.5703 13.008 21.6346C13.3313 21.6989 13.6664 21.6659 13.9709 21.5398C14.2755 21.4137 14.5358 21.2 14.7189 20.9259C14.902 20.6519 14.9998 20.3296 14.9998 20C14.9998 19.558 14.8242 19.134 14.5116 18.8215C14.1991 18.5089 13.7751 18.3333 13.3331 18.3333ZM19.9998 18.3333C19.6701 18.3333 19.3479 18.4311 19.0738 18.6142C18.7997 18.7974 18.5861 19.0576 18.46 19.3622C18.3338 19.6667 18.3008 20.0018 18.3651 20.3251C18.4294 20.6485 18.5882 20.9454 18.8213 21.1785C19.0544 21.4116 19.3513 21.5703 19.6746 21.6346C19.9979 21.6989 20.333 21.6659 20.6376 21.5398C20.9421 21.4137 21.2024 21.2 21.3856 20.9259C21.5687 20.6519 21.6664 20.3296 21.6664 20C21.6664 19.558 21.4908 19.134 21.1783 18.8215C20.8657 18.5089 20.4418 18.3333 19.9998 18.3333ZM26.6664 18.3333C26.3368 18.3333 26.0146 18.4311 25.7405 18.6142C25.4664 18.7974 25.2528 19.0576 25.1266 19.3622C25.0005 19.6667 24.9675 20.0018 25.0318 20.3251C25.0961 20.6485 25.2548 20.9454 25.4879 21.1785C25.721 21.4116 26.018 21.5703 26.3413 21.6346C26.6646 21.6989 26.9997 21.6659 27.3042 21.5398C27.6088 21.4137 27.8691 21.2 28.0522 20.9259C28.2354 20.6519 28.3331 20.3296 28.3331 20C28.3331 19.558 28.1575 19.134 27.845 18.8215C27.5324 18.5089 27.1085 18.3333 26.6664 18.3333ZM19.9998 3.33333C17.8111 3.33333 15.6438 3.76443 13.6217 4.60201C11.5996 5.43958 9.76231 6.66724 8.21466 8.21489C5.08906 11.3405 3.33311 15.5797 3.33311 20C3.31854 23.8486 4.6511 27.5809 7.09978 30.55L3.76644 33.8833C3.53518 34.1177 3.37852 34.4153 3.31623 34.7386C3.25394 35.062 3.28881 35.3965 3.41644 35.7C3.55487 35.9999 3.77928 36.2519 4.06119 36.424C4.34309 36.5961 4.66978 36.6806 4.99978 36.6667H19.9998C24.4201 36.6667 28.6593 34.9107 31.7849 31.7851C34.9105 28.6595 36.6664 24.4203 36.6664 20C36.6664 15.5797 34.9105 11.3405 31.7849 8.21489C28.6593 5.08928 24.4201 3.33333 19.9998 3.33333ZM19.9998 33.3333H9.01644L10.5664 31.7833C10.7239 31.629 10.8492 31.4449 10.935 31.2418C11.0209 31.0386 11.0655 30.8205 11.0664 30.6C11.0602 30.1604 10.8805 29.741 10.5664 29.4333C8.38409 27.2534 7.02507 24.3842 6.72093 21.3147C6.41679 18.2451 7.18635 15.165 8.89849 12.5992C10.6106 10.0334 13.1594 8.1406 16.1106 7.24329C19.0618 6.34598 22.2329 6.49967 25.0835 7.67819C27.9341 8.8567 30.2879 10.9871 31.7438 13.7065C33.1998 16.4258 33.6679 19.5659 33.0683 22.5917C32.4688 25.6174 30.8386 28.3417 28.4557 30.3004C26.0727 32.2591 23.0844 33.3309 19.9998 33.3333Z" fill="#5C6D84"/>
</svg>
