<svg width="35" height="35" viewBox="0 0 35 35" fill="none" xmlns="http://www.w3.org/2000/svg">
<path d="M29.2141 29.1593H5.78595C4.55355 29.1579 3.37204 28.6677 2.50061 27.7962C1.62917 26.9248 1.13896 25.7433 1.13751 24.5109V10.489C1.13896 9.25662 1.62917 8.07511 2.50061 7.20367C3.37204 6.33223 4.55355 5.84202 5.78595 5.84058H29.2141C30.4465 5.84202 31.628 6.33223 32.4994 7.20367C33.3709 8.07511 33.8611 9.25662 33.8625 10.489V24.5109C33.8611 25.7433 33.3709 26.9248 32.4994 27.7962C31.628 28.6677 30.4465 29.1579 29.2141 29.1593ZM5.78595 7.4812C4.98823 7.4812 4.22318 7.7981 3.65911 8.36217C3.09503 8.92624 2.77814 9.69129 2.77814 10.489V24.5109C2.77814 25.3086 3.09503 26.0737 3.65911 26.6377C4.22318 27.2018 4.98823 27.5187 5.78595 27.5187H29.2141C30.0118 27.5187 30.7768 27.2018 31.3409 26.6377C31.905 26.0737 32.2219 25.3086 32.2219 24.5109V10.489C32.2219 9.69129 31.905 8.92624 31.3409 8.36217C30.7768 7.7981 30.0118 7.4812 29.2141 7.4812H5.78595Z" fill="#E3E3E3"/>
<path d="M17.5 20.825C16.488 20.8265 15.5031 20.4982 14.6945 19.8898L1.925 10.232C1.83477 10.1687 1.75824 10.0878 1.69996 9.99426C1.64168 9.9007 1.60286 9.79636 1.5858 9.68746C1.56875 9.57856 1.57382 9.46734 1.60071 9.36045C1.62759 9.25355 1.67575 9.15317 1.7423 9.0653C1.80884 8.97743 1.89241 8.90387 1.98802 8.84902C2.08363 8.79417 2.18931 8.75915 2.29876 8.74605C2.4082 8.73295 2.51916 8.74204 2.62501 8.77278C2.73087 8.80352 2.82944 8.85528 2.91484 8.92496L15.6844 18.5937C16.2088 18.9852 16.8456 19.1967 17.5 19.1967C18.1544 19.1967 18.7912 18.9852 19.3156 18.5937L32.0851 8.92496C32.1706 8.85528 32.2691 8.80352 32.375 8.77278C32.4808 8.74204 32.5918 8.73295 32.7012 8.74605C32.8107 8.75915 32.9164 8.79417 33.012 8.84902C33.1076 8.90387 33.1911 8.97743 33.2577 9.0653C33.3242 9.15317 33.3724 9.25355 33.3993 9.36045C33.4262 9.46734 33.4312 9.57856 33.4142 9.68746C33.3971 9.79636 33.3583 9.9007 33.3 9.99426C33.2418 10.0878 33.1652 10.1687 33.075 10.232L20.3055 19.8898C19.4969 20.4982 18.512 20.8265 17.5 20.825Z" fill="#E3E3E3"/>
<path d="M2.28047 26.8735C2.1141 26.8737 1.95158 26.8234 1.81449 26.7291C1.6774 26.6348 1.57221 26.5011 1.51288 26.3457C1.45355 26.1902 1.44289 26.0204 1.48231 25.8588C1.52173 25.6971 1.60937 25.5513 1.7336 25.4406L11.7961 16.4664C11.9585 16.3214 12.172 16.2468 12.3894 16.2591C12.6068 16.2714 12.8104 16.3696 12.9555 16.5321C13.1005 16.6945 13.1751 16.9079 13.1628 17.1253C13.1505 17.3428 13.0523 17.5464 12.8898 17.6914L2.82735 26.6656C2.67791 26.8016 2.48249 26.8759 2.28047 26.8735ZM32.7195 26.8735C32.5175 26.8759 32.3221 26.8016 32.1727 26.6656L22.1102 17.6914C21.9477 17.5464 21.8495 17.3428 21.8372 17.1253C21.8249 16.9079 21.8995 16.6945 22.0445 16.5321C22.1896 16.3696 22.3932 16.2714 22.6106 16.2591C22.8281 16.2468 23.0415 16.3214 23.2039 16.4664L33.2609 25.4406C33.3852 25.5513 33.4728 25.6971 33.5122 25.8588C33.5517 26.0204 33.541 26.1902 33.4817 26.3457C33.4223 26.5011 33.3171 26.6348 33.1801 26.7291C33.043 26.8234 32.8804 26.8737 32.7141 26.8735H32.7195Z" fill="#E3E3E3"/>
</svg>
