<svg width="35" height="36" viewBox="0 0 35 36" fill="none" xmlns="http://www.w3.org/2000/svg">
<path d="M30.4792 3H4.52082C4.09537 3 3.68735 3.17384 3.38651 3.48327C3.08567 3.79271 2.91666 4.21239 2.91666 4.65V31.35C2.91666 31.5667 2.95815 31.7812 3.03877 31.9814C3.11938 32.1816 3.23755 32.3635 3.38651 32.5167C3.53547 32.6699 3.71231 32.7915 3.90694 32.8744C4.10156 32.9573 4.31016 33 4.52082 33H18.4917V21.375H14.7V16.875H18.4917V13.5C18.4131 12.7076 18.5041 11.9072 18.7581 11.1548C19.0122 10.4024 19.4232 9.71632 19.9623 9.14462C20.5015 8.57292 21.1557 8.12946 21.8791 7.84536C22.6025 7.56125 23.3776 7.44338 24.15 7.5C25.285 7.49282 26.4196 7.55291 27.5479 7.68V11.73H25.2292C23.3917 11.73 23.0417 12.63 23.0417 13.935V16.83H27.4167L26.8479 21.33H23.0417V33H30.4792C30.6898 33 30.8984 32.9573 31.093 32.8744C31.2877 32.7915 31.4645 32.6699 31.6135 32.5167C31.7624 32.3635 31.8806 32.1816 31.9612 31.9814C32.0418 31.7812 32.0833 31.5667 32.0833 31.35V4.65C32.0833 4.43332 32.0418 4.21876 31.9612 4.01857C31.8806 3.81839 31.7624 3.63649 31.6135 3.48327C31.4645 3.33006 31.2877 3.20852 31.093 3.1256C30.8984 3.04268 30.6898 3 30.4792 3Z" fill="#E3E3E3"/>
</svg>
