<svg width="35" height="36" viewBox="0 0 35 36" fill="none" xmlns="http://www.w3.org/2000/svg">
<path d="M25.2875 8.19C24.9414 8.19 24.603 8.29557 24.3152 8.49335C24.0275 8.69114 23.8032 8.97226 23.6707 9.30117C23.5382 9.63008 23.5036 9.992 23.5711 10.3412C23.6386 10.6903 23.8053 11.0111 24.0501 11.2628C24.2948 11.5145 24.6066 11.686 24.9461 11.7554C25.2855 11.8249 25.6374 11.7892 25.9572 11.653C26.277 11.5167 26.5503 11.286 26.7426 10.99C26.9349 10.694 27.0375 10.346 27.0375 9.99C27.0375 9.51261 26.8531 9.05477 26.5249 8.71721C26.1967 8.37964 25.7516 8.19 25.2875 8.19ZM31.9958 11.82C31.9675 10.5754 31.7408 9.3441 31.325 8.175C30.9542 7.1747 30.3771 6.26892 29.6333 5.52C28.9112 4.75114 28.0285 4.16126 27.0521 3.795C25.9184 3.35424 24.72 3.11581 23.5083 3.09C21.9625 3 21.4667 3 17.5 3C13.5333 3 13.0375 3 11.4917 3.09C10.28 3.11581 9.08153 3.35424 7.94791 3.795C6.97327 4.16497 6.09135 4.75434 5.36666 5.52C4.61915 6.26277 4.04566 7.17066 3.68957 8.175C3.26106 9.34101 3.02925 10.5737 3.00416 11.82C2.91666 13.41 2.91666 13.92 2.91666 18C2.91666 22.08 2.91666 22.59 3.00416 24.18C3.02925 25.4263 3.26106 26.659 3.68957 27.825C4.04566 28.8293 4.61915 29.7372 5.36666 30.48C6.09135 31.2457 6.97327 31.835 7.94791 32.205C9.08153 32.6458 10.28 32.8842 11.4917 32.91C13.0375 33 13.5333 33 17.5 33C21.4667 33 21.9625 33 23.5083 32.91C24.72 32.8842 25.9184 32.6458 27.0521 32.205C28.0285 31.8387 28.9112 31.2489 29.6333 30.48C30.3803 29.7339 30.958 28.8273 31.325 27.825C31.7408 26.6559 31.9675 25.4246 31.9958 24.18C31.9958 22.59 32.0833 22.08 32.0833 18C32.0833 13.92 32.0833 13.41 31.9958 11.82ZM29.3708 24C29.3602 24.9522 29.1925 25.8956 28.875 26.79C28.6421 27.4428 28.2681 28.0326 27.7812 28.515C27.3082 29.0108 26.7359 29.3946 26.1042 29.64C25.2346 29.9666 24.3174 30.1391 23.3917 30.15C21.9333 30.225 21.3937 30.24 17.5583 30.24C13.7229 30.24 13.1833 30.24 11.725 30.15C10.7638 30.1685 9.80669 30.0163 8.89582 29.7C8.29175 29.4421 7.74572 29.0592 7.29166 28.575C6.80762 28.0931 6.4383 27.5028 6.21249 26.85C5.85645 25.9427 5.65897 24.9779 5.62916 24C5.62916 22.5 5.54166 21.945 5.54166 18C5.54166 14.055 5.54166 13.5 5.62916 12C5.63569 11.0266 5.80846 10.0619 6.13957 9.15C6.39631 8.51687 6.79038 7.95249 7.29166 7.5C7.73472 6.98425 8.28228 6.57464 8.89582 6.3C9.78475 5.97007 10.7217 5.79762 11.6667 5.79C13.125 5.79 13.6646 5.7 17.5 5.7C21.3354 5.7 21.875 5.7 23.3333 5.79C24.259 5.80092 25.1762 5.97337 26.0458 6.3C26.7085 6.55298 27.3033 6.96427 27.7812 7.5C28.2591 7.96077 28.6326 8.5241 28.875 9.15C29.1991 10.0634 29.3669 11.0277 29.3708 12C29.4437 13.5 29.4583 14.055 29.4583 18C29.4583 21.945 29.4437 22.5 29.3708 24ZM17.5 10.305C16.021 10.308 14.576 10.7618 13.3476 11.6091C12.1192 12.4565 11.1626 13.6593 10.5986 15.0656C10.0346 16.472 9.88855 18.0187 10.1789 19.5104C10.4692 21.0021 11.1828 22.3718 12.2297 23.4465C13.2765 24.5211 14.6096 25.2525 16.0604 25.5482C17.5112 25.8439 19.0147 25.6907 20.3809 25.1078C21.7471 24.525 22.9146 23.5387 23.736 22.2736C24.5574 21.0084 24.9958 19.5213 24.9958 18C24.9978 16.9877 24.8051 15.9849 24.4289 15.0494C24.0527 14.114 23.5004 13.2642 22.8038 12.5491C22.1071 11.8339 21.2799 11.2675 20.3697 10.8824C19.4595 10.4973 18.4842 10.301 17.5 10.305ZM17.5 22.995C16.5395 22.995 15.6006 22.702 14.802 22.1532C14.0034 21.6043 13.381 20.8242 13.0134 19.9115C12.6458 18.9988 12.5497 17.9945 12.7371 17.0255C12.9244 16.0566 13.3869 15.1666 14.0661 14.468C14.7453 13.7694 15.6106 13.2937 16.5526 13.101C17.4946 12.9082 18.471 13.0072 19.3584 13.3852C20.2458 13.7633 21.0042 14.4035 21.5378 15.2249C22.0714 16.0464 22.3562 17.0121 22.3562 18C22.3562 18.656 22.2306 19.3055 21.9866 19.9115C21.7425 20.5175 21.3848 21.0682 20.9339 21.532C20.4829 21.9958 19.9476 22.3638 19.3584 22.6148C18.7692 22.8658 18.1377 22.995 17.5 22.995Z" fill="#D9D9D9"/>
</svg>
