<svg width="40" height="40" viewBox="0 0 40 40" fill="none" xmlns="http://www.w3.org/2000/svg">
<path d="M29.0729 27.5938L25.5313 24.0625C26.6739 22.6067 27.294 20.809 27.2917 18.9583C27.2917 17.3102 26.8029 15.699 25.8873 14.3286C24.9716 12.9582 23.6701 11.8901 22.1474 11.2593C20.6246 10.6286 18.9491 10.4636 17.3326 10.7851C15.7161 11.1067 14.2312 11.9003 13.0658 13.0658C11.9003 14.2312 11.1067 15.7161 10.7851 17.3326C10.4636 18.9491 10.6286 20.6246 11.2593 22.1474C11.8901 23.6701 12.9582 24.9716 14.3286 25.8873C15.699 26.8029 17.3102 27.2917 18.9583 27.2917C20.809 27.294 22.6067 26.6739 24.0625 25.5313L27.5938 29.0729C27.6906 29.1706 27.8058 29.2481 27.9327 29.3009C28.0597 29.3538 28.1958 29.381 28.3333 29.381C28.4709 29.381 28.607 29.3538 28.7339 29.3009C28.8609 29.2481 28.9761 29.1706 29.0729 29.0729C29.1706 28.9761 29.2481 28.8609 29.3009 28.7339C29.3538 28.607 29.381 28.4709 29.381 28.3333C29.381 28.1958 29.3538 28.0597 29.3009 27.9327C29.2481 27.8058 29.1706 27.6906 29.0729 27.5938ZM12.7083 18.9583C12.7083 17.7222 13.0749 16.5138 13.7617 15.486C14.4484 14.4582 15.4245 13.6571 16.5666 13.1841C17.7086 12.711 18.9653 12.5873 20.1777 12.8284C21.39 13.0696 22.5037 13.6648 23.3778 14.5389C24.2518 15.413 24.8471 16.5266 25.0882 17.739C25.3294 18.9514 25.2056 20.2081 24.7326 21.3501C24.2595 22.4921 23.4585 23.4683 22.4307 24.155C21.4028 24.8418 20.1945 25.2083 18.9583 25.2083C17.3007 25.2083 15.711 24.5499 14.5389 23.3778C13.3668 22.2057 12.7083 20.6159 12.7083 18.9583Z" fill="#E3E3E3"/>
</svg>
